# xmcd CD database file
# Copyright (C) 1993-1998 Ti Kan
# 
# Track frame offsets:
#     150
#     14055
#     27795
#     40950
#     54145
#     68232
#     83027
#     96352
#     110212
#     124170
#     137535
#     150670
#     165820
#     180940
#     195397
#     207690
#     222192
#     236807
#     253085
#     266452
#     279910
# 
# Disc length: 3905 seconds
# 
# Revision: 1
# Processed by: cddbd v1.4b41PL1 Copyright (c) Steve Scherf et al.
# Submitted via: DiscPlay 4.0.4
# 
DISCID=230f3f15
DTITLE=Lonnie Johnson - Complete Recorded Works Vol 7(1925-32)
DYEAR=1900
DGENRE=
TTITLE0=Low Down St. Louis Blues
TTITLE1=Beautiful But Dumb
TTITLE2=From A Wash Woman On Up
TTITLE3=Hell Is A Name For All Sinners
TTITLE4=Home Wreckers Blues
TTITLE5=Not The Chump I Used To Be
TTITLE6=Best Jockey In Town
TTITLE7=Sleepy Water Blues
TTITLE8=Uncle Ned, Don't Use Your Head
TTITLE9=Cat You Been Messin' Aroun'
TTITLE10=She's Dangerous With That Thing
TTITLE11=Men, Get Wise To Yourself
TTITLE12=Sam, You're Just A Rat
TTITLE13=Winnie The Wailer
TTITLE14=There Is No Justice
TTITLE15=I'm Nuts About That Gal
TTITLE16=Racketeers Blues
TTITLE17=Unselfish Love
TTITLE18=My Love Don't Belong To You
TTITLE19=Love Is A Song (Your Love Is Cold)
TTITLE20=Go Back To Your No Good Man
EXTD=
EXTT0=
EXTT1=
EXTT2=
EXTT3=
EXTT4=
EXTT5=
EXTT6=
EXTT7=
EXTT8=
EXTT9=
EXTT10=
EXTT11=
EXTT12=
EXTT13=
EXTT14=
EXTT15=
EXTT16=
EXTT17=
EXTT18=
EXTT19=
EXTT20=
PLAYORDER=
